<svg width="33" height="30" viewBox="0 0 33 30" fill="none" xmlns="http://www.w3.org/2000/svg">
<path d="M29.25 28.25H3.25C2.14543 28.25 1.25 27.3546 1.25 26.25V8.875C1.25 7.77043 2.14543 6.875 3.25 6.875H8.13889C9.24346 6.875 10.1389 5.97957 10.1389 4.875V3.25C10.1389 2.14543 11.0343 1.25 12.1389 1.25H20.3611C21.4657 1.25 22.3611 2.14543 22.3611 3.25V4.875C22.3611 5.97957 23.2565 6.875 24.3611 6.875H29.25C30.3546 6.875 31.25 7.77043 31.25 8.875V26.25C31.25 27.3546 30.3546 28.25 29.25 28.25Z" stroke="#FA002C" stroke-width="2.5"/>
</svg>
